<?xml version="1.0" encoding="utf-8"?>
<!-- Generator: Adobe Illustrator 24.0.0, SVG Export Plug-In . SVG Version: 6.00 Build 0)  -->
<svg version="1.1" id="레이어_1" xmlns="http://www.w3.org/2000/svg" xmlns:xlink="http://www.w3.org/1999/xlink" x="0px"
	 y="0px" viewBox="0 0 119 27" style="enable-background:new 0 0 119 27;" xml:space="preserve">
<style type="text/css">
	.st0{fill:#EA0000;}
</style>
<title>Group 2</title>
<desc>Created with Sketch.</desc>
<path id="패스_1" class="st0" d="M26.3,3.1l12.2,14.3V3.1h3.9v20.5H39L26.7,9.1v14.5h-3.9V3.1H26.3z M51,9.6
	c1.8-0.1,3.5,0.6,4.8,1.9c1.2,1.3,1.8,3.1,1.8,5.4v0.5h-9.7c0.1,1.1,0.6,2.1,1.4,2.8c0.9,0.7,2,1.1,3.2,1c0.8,0,1.7-0.1,2.5-0.4
	c0.9-0.3,1.7-0.8,2.5-1.4v2.7c-1.7,1.2-3.8,1.8-5.8,1.7c-2,0.1-3.9-0.6-5.3-1.9c-1.4-1.4-2.1-3.2-2.1-5.2c-0.1-1.9,0.6-3.7,1.9-5.1
	C47.4,10.3,49.2,9.6,51,9.6z M54.2,15.3c0-0.9-0.4-1.7-0.9-2.3s-1.3-0.9-2.1-0.8c-0.8,0-1.6,0.3-2.2,0.8c-0.6,0.7-1,1.5-1,2.4
	L54.2,15.3z M68.1,10.2V3.1h3.6v20.5h-6.3c-1.9,0.1-3.8-0.6-5.3-1.9c-1.4-1.4-2.1-3.2-2-5.2c0-1.2,0.3-2.4,0.9-3.5
	c0.6-1,1.5-1.9,2.5-2.5c1.1-0.6,2.3-0.9,3.5-0.9C66.1,9.7,67.1,9.9,68.1,10.2z M66.2,20.8h1.9v-7.9c-0.7-0.4-1.5-0.6-2.3-0.6
	c-1.1-0.1-2.1,0.4-2.9,1.1c-0.7,0.8-1.1,1.9-1.1,3C61.8,19.4,63.3,20.8,66.2,20.8z M79.3,3.1l5.6,6.9l5.6-6.9h4.9l-8,9.9l8.8,10.6
	h-5L85,16l-6.2,7.7h-5L82.4,13l-8.1-9.9C74.3,3.1,79.3,3.1,79.3,3.1z"/>
</svg>
